<svg width="890" height="599" viewBox="0 0 890 599" fill="none" xmlns="http://www.w3.org/2000/svg">
<path fill-rule="evenodd" clip-rule="evenodd" d="M264.605 97.9269C304.742 52.0155 364.91 30.6708 421.215 23.2217C449.25 19.5127 475.974 19.302 498.166 21.0944C520.593 22.9056 537.636 26.7016 546.656 30.5449L547.201 30.777L547.769 30.9432C587.601 42.5911 614.172 55.8263 636.109 73.8663C657.844 91.7404 675.613 114.793 697.203 147.304C714.66 227.853 721.304 286.496 712.175 336.09C703.082 385.49 678.111 426.986 629.719 472.566L642.078 488.196C733.848 427.735 774.521 405.916 826.994 389.91L827.42 389.78L827.832 389.613C843.306 383.341 852.458 383.24 857.589 384.717C862.186 386.041 864.94 389.037 866.774 393.438C868.737 398.149 869.344 403.936 869.315 409.022C869.303 411.195 869.176 413.095 869.041 414.524C868.852 414.736 868.65 414.962 868.436 415.202C868.247 415.413 868.049 415.634 867.842 415.866L867.409 416.349C865.021 419.015 861.534 422.881 857.156 427.663C848.398 437.231 836.086 450.452 821.875 465.061C793.33 494.407 757.57 528.889 727.669 550.776L739.482 566.914C770.827 543.971 807.568 508.453 836.211 479.006C850.595 464.219 863.049 450.846 871.908 441.168C876.339 436.328 879.874 432.408 882.306 429.695C883.521 428.338 884.461 427.282 885.099 426.563C885.274 426.366 885.427 426.194 885.556 426.048L885.827 425.741L886.015 425.528L886.064 425.473L886.077 425.458L886.081 425.454C886.082 425.452 886.083 425.452 878.576 418.845L886.083 425.452L887.946 423.334L888.429 420.555L878.576 418.845C888.429 420.555 888.429 420.55 888.43 420.545L888.432 420.534L888.437 420.508L888.449 420.436C888.458 420.381 888.47 420.309 888.483 420.223C888.491 420.177 888.499 420.126 888.507 420.072L888.526 419.945L888.538 419.865C888.554 419.762 888.57 419.648 888.588 419.524C888.67 418.943 888.775 418.133 888.879 417.136C889.087 415.148 889.297 412.372 889.315 409.135C889.35 402.834 888.672 393.995 885.236 385.747C881.671 377.188 874.913 368.893 863.122 365.498C851.955 362.283 837.978 363.984 820.738 370.909C779.48 383.533 745.203 399.702 692.124 432.363C712.806 403.238 725.664 373.287 731.845 339.71C741.814 285.549 734.172 223.036 716.347 141.216L715.948 139.388L714.915 137.827C692.639 104.163 673.307 78.5625 648.812 58.4188C624.281 38.2457 595.169 24.0169 553.93 11.9075C541.971 6.94392 522.7 3.01074 499.776 1.15927C476.253 -0.740623 448.107 -0.510341 418.592 3.39446C360.24 11.1143 295.137 33.4076 250.56 83.6141C245.458 86.917 239.832 92.2821 234.194 98.8843C227.843 106.321 220.978 115.918 214.248 127.371C200.787 150.277 187.651 180.971 180.288 217.326C167.826 278.857 171.977 356.316 218.505 439.105C172.274 407.916 130.212 389.769 60.722 370.702L59.8176 370.453L58.8828 370.378C46.8206 369.401 36.5052 369.357 28.0823 370.807C19.631 372.261 11.934 375.423 6.63008 381.848C1.30461 388.299 -0.233458 396.371 0.0277157 404.647C0.28701 412.864 2.34857 422.421 5.47584 433.145L6.24189 435.772L8.23873 437.643C82.2539 506.99 127.792 537.914 214.253 579.363L222.899 561.328C139.105 521.157 95.2878 491.582 23.9316 424.936C21.4467 416.018 20.1814 409.201 20.0178 404.017C19.8404 398.397 20.988 395.871 22.0538 394.58C23.1412 393.263 25.5411 391.538 31.4741 390.517C37.2734 389.519 45.3394 389.39 56.3414 390.239C143.956 414.353 185.482 436.51 250.913 487.72L265.081 473.851C193.731 378.566 186.169 289.042 199.89 221.296C206.779 187.283 219.06 158.657 231.491 137.504C237.706 126.926 243.907 118.308 249.403 111.873C255.047 105.263 259.49 101.498 262.075 100.006L263.512 99.1761L264.605 97.9269ZM320.076 226.845C333.883 226.845 345.076 217.219 345.076 205.345C345.076 193.471 333.883 183.845 320.076 183.845C306.269 183.845 295.076 193.471 295.076 205.345C295.076 217.219 306.269 226.845 320.076 226.845ZM551.076 205.345C551.076 217.219 539.883 226.845 526.076 226.845C512.269 226.845 501.076 217.219 501.076 205.345C501.076 193.471 512.269 183.845 526.076 183.845C539.883 183.845 551.076 193.471 551.076 205.345ZM383.557 281.986C395.098 306.35 411.061 319.911 428.125 319.531C445.205 319.152 459.943 304.891 469.218 281.702L459.934 277.988C451.209 299.799 438.946 309.288 427.902 309.534C416.841 309.78 403.554 300.841 392.595 277.705L383.557 281.986ZM428.361 462.476C417.445 458.635 406.59 457.278 399.693 459.23C384.156 463.628 371.251 475.264 365.214 488.01C359.253 500.594 360.399 512.801 370.09 521.114C383.684 532.774 398.171 541.72 414.297 551.68L414.299 551.68L414.299 551.681C416.526 553.056 418.785 554.451 421.076 555.875C421.026 555.591 421 555.298 421 555C421 552.239 423.239 550 426 550H426.021H426.042H426.064H426.085H426.106H426.127H426.148H426.169H426.191H426.212H426.233H426.254H426.275H426.296H426.318H426.339H426.36H426.381H426.402H426.423H426.445H426.466H426.487H426.508H426.529H426.551H426.572H426.593H426.614H426.635H426.656H426.678H426.699H426.72H426.741H426.762H426.783H426.805H426.826H426.847H426.868H426.889H426.911H426.932H426.953H426.974H426.995H427.016H427.038H427.059H427.08H427.101H427.122H427.143H427.165H427.186H427.207H427.228H427.249H427.271H427.292H427.313H427.334H427.355H427.376H427.398H427.419H427.44H427.461H427.482H427.503H427.525H427.546H427.567H427.588H427.609H427.63H427.652H427.673H427.694H427.715H427.736H427.758H427.779H427.8H427.821H427.842H427.863H427.885H427.906H427.927H427.948H427.969H427.99H428.012H428.033H428.054H428.075H428.096H428.118H428.139H428.16H428.181H428.202H428.223H428.245H428.266H428.287H428.308H428.329H428.35H428.372H428.393H428.414H428.435H428.456H428.478H428.499H428.52H428.541H428.562H428.583H428.605H428.626H428.647H428.668H428.689H428.71H428.732H428.753H428.774H428.795H428.816H428.837H428.859H428.88H428.901H428.922H428.943H428.965H428.986H429.007H429.028H429.049H429.07H429.092H429.113H429.134H429.155H429.176H429.197H429.219H429.24H429.261H429.282H429.303H429.325H429.346H429.367H429.388H429.409H429.43H429.452H429.473H429.494H429.515H429.536H429.557H429.579H429.6H429.621H429.642H429.663H429.685H429.706H429.727H429.748H429.769H429.79H429.812H429.833H429.854H429.875H429.896H429.917H429.939H429.96H429.981H430.002H430.023H430.044H430.066H430.087H430.108H430.129H430.15H430.172H430.193H430.214H430.235H430.256H430.277H430.299H430.32H430.341H430.362H430.383H430.404H430.426H430.447H430.468H430.489H430.51H430.531H430.553H430.574H430.595H430.616H430.637H430.659H430.68H430.701H430.722H430.743H430.764H430.786H430.807H430.828H430.849H430.87H430.891H430.913H430.934H430.955H430.976H430.997H431.019H431.04H431.061H431.082H431.103H431.124H431.146H431.167H431.188H431.209H431.23H431.251H431.273H431.294H431.315H431.336H431.357H431.379H431.4H431.421H431.442H431.463H431.484H431.506H431.527H431.548H431.569H431.59H431.611H431.633H431.654H431.675H431.696H431.717H431.738H431.76H431.781H431.802H431.823H431.844H431.866H431.887H431.908H431.929H431.95H431.971H431.993H432.014H432.035H432.056H432.077H432.098H432.12H432.141H432.162H432.183H432.204H432.226H432.247H432.268H432.289H432.31H432.331H432.353H432.374H432.395H432.416H432.437H432.458H432.48H432.501H432.522H432.543H432.564H432.586H432.607H432.628H432.649H432.67H432.691H432.713H432.734H432.755H432.776H432.797H432.818H432.84H432.861H432.882H432.903H432.924H432.945H432.967H432.988H433.009H433.03H433.051H433.073H433.094H433.115H433.136H433.157H433.178H433.2H433.221H433.242H433.263H433.284H433.305H433.327H433.348H433.369H433.39H433.411H433.433H433.454H433.475H433.496H433.517H433.538H433.56H433.581H433.602H433.623H433.644H433.665H433.687H433.708H433.729H433.75H433.771H433.793H433.814H433.835H433.856H433.877H433.898H433.92H433.941H433.962H433.983H434.004H434.025H434.047H434.068H434.089H434.11H434.131H434.152H434.174H434.195H434.216H434.237H434.258H434.28H434.301H434.322H434.343H434.364H434.385H434.407H434.428H434.449H434.47H434.491H434.512H434.534H434.555H434.576H434.597H434.618H434.639H434.661H434.682H434.703H434.724H434.745H434.767H434.788H434.809H434.83H434.851H434.872H434.894H434.915H434.936H434.957H434.978H434.999H435.021H435.042H435.063H435.084H435.105H435.127H435.148H435.169H435.19H435.211H435.232H435.254H435.275H435.296H435.317H435.338H435.359H435.381H435.402H435.423H435.444H435.465H435.487H435.508H435.529H435.55H435.571H435.592H435.614H435.635H435.656H435.677H435.698H435.719H435.741H435.762H435.783H435.804H435.825H435.846H435.868H435.889H435.91H435.931H435.952H435.974H435.995H436.016H436.037H436.058H436.079H436.101H436.122H436.143H436.164H436.185H436.206H436.228H436.249H436.27H436.291H436.312H436.334H436.355H436.376H436.397H436.418H436.439H436.461H436.482H436.503H436.524H436.545H436.566H436.588H436.609H436.63H436.651H436.672H436.694H436.715H436.736H436.757H436.778H436.799H436.821H436.842C438.535 550 441.968 550 444.992 549.466C446.382 549.221 447.367 548.913 447.957 548.627C448.566 540.488 443.671 535.192 437.952 535.192C435.424 535.192 432.86 534.932 430.469 533.401C428.327 532.03 426.846 529.923 425.569 528.089C421.531 522.295 423.125 514.838 428.969 511.102C429.031 510.995 429.111 510.856 429.212 510.679C429.534 510.116 430.217 509.013 431.519 508.158C432.866 507.274 434.328 507 435.647 507H435.658H435.669H435.68H435.691H435.702H435.714H435.725H435.736H435.747H435.758H435.769H435.781H435.792H435.803H435.814H435.825H435.836H435.848H435.859H435.87H435.881H435.892H435.904H435.915H435.926H435.937H435.948H435.959H435.971H435.982H435.993H436.004H436.015H436.026H436.038H436.049H436.06H436.071H436.082H436.093H436.105H436.116H436.127H436.138H436.149H436.16H436.172H436.183H436.194H436.205H436.216H436.227H436.239H436.25H436.261H436.272H436.283H436.295H436.306H436.317H436.328H436.339H436.35H436.362H436.373H436.384H436.395H436.406H436.417H436.429H436.44H436.451H436.462H436.473H436.484H436.496H436.507H436.518H436.529H436.54H436.551H436.563H436.574H436.585H436.596H436.607H436.618H436.63H436.641H436.652H436.663H436.674H436.686H436.697H436.708H436.719H436.73H436.741H436.753H436.764H436.775H436.786H436.797H436.808H436.82H436.831H436.842H436.853H436.864H436.875H436.887H436.898H436.909H436.92H436.931H436.942H436.954H436.965H436.976H436.987H436.998H437.009H437.021H437.032H437.043H437.054H437.065H437.077H437.088H437.099H437.11H437.121H437.132H437.144H437.155H437.166H437.177H437.188H437.199H437.211H437.222H437.233H437.244H437.255H437.266H437.278H437.289H437.3H437.311H437.322H437.333H437.345H437.356H437.367H437.378H437.389H437.4H437.412H437.423H437.434H437.445H437.456H437.468H437.479H437.49H437.501H437.512H437.523H437.535H437.546H437.557H437.568H437.579H437.59H437.602H437.613H437.624H437.635H437.646H437.657H437.669H437.68H437.691H437.702H437.713H437.724H437.736H437.747H437.758H437.769H437.78H437.791H437.803H437.814H437.825H437.836H437.847H437.858H437.87H437.881H437.892H437.903H437.914H437.926H437.937H437.948H437.959H437.97H437.981H437.993H438.004H438.015H438.026H438.037H438.048H438.06H438.071H438.082H438.093H438.104H438.115H438.127H438.138H438.149H438.16H438.171H438.182H438.194H438.205H438.216H438.227H438.238H438.249H438.261H438.272H438.283H438.294H438.305H438.316H438.328H438.339H438.35H438.361H438.372H438.384H438.395H438.406H438.417H438.428H438.439H438.451H438.462H438.473H438.484H438.495H438.506H438.518H438.529H438.54H438.551H438.562H438.573H438.585H438.596H438.607H438.618H438.629H438.64H438.652H438.663H438.674H438.685H438.696H438.707H438.719H438.73H438.741H438.752H438.763H438.775H438.786H438.797H438.808H438.819H438.83H438.842H438.853H438.864H438.875H438.886H438.897H438.909H438.92H438.931H438.942H438.953H438.964H438.976H438.987H438.998H439.009H439.02H439.031H439.043H439.054H439.065H439.076H439.087H439.098H439.11H439.121H439.132H439.143H439.154H439.166H439.177H439.188H439.199H439.21H439.221H439.233H439.244H439.255H439.266H439.277H439.288H439.3H439.311H439.322H439.333H439.344H439.355H439.367H439.378H439.389H439.4H439.411H439.422H439.434H439.445H439.456H439.467H439.478H439.489H439.501H439.512H439.523H439.534H439.545H439.557H439.568H439.579H439.59H439.601H439.612H439.624H439.635H439.646H439.657H439.668H439.679H439.691H439.702H439.713H439.724H439.735H439.746H439.758H439.769H439.78H439.791H439.802H439.813H439.825H439.836H439.847H439.858H439.869H439.88H439.892H439.903H439.914H439.925H439.936H439.948H439.959H439.97H439.981H439.992H440.003H440.015H440.026H440.037H440.048H440.059H440.07H440.082H440.093H440.104H440.115H440.126H440.137H440.149H440.16H440.171H440.182H440.193H440.204H440.216H440.227H440.238H440.249H440.26H440.271H440.283H440.294H440.305H440.316H440.327H440.339H440.35H440.361H440.372H440.383H440.394H440.406H440.417H440.428H440.439H440.45H440.461H440.473H440.484H440.495H440.506H440.517H440.528H440.54H440.551H440.562H440.573H440.584H440.595H440.607H440.618H440.629H440.64H440.651H440.662H440.674H440.685H440.696H440.707H440.718H440.729H440.741H440.752H440.763H440.774H440.785H440.797H440.808H440.819H440.83H440.841H440.852H440.864H440.875H440.886H440.897H440.908H440.919H440.931H440.942H440.953H440.964H440.975H440.986H440.998H441.009H441.02H441.031H441.042H441.053H441.065H441.076H441.087H441.098H441.109H441.12H441.132H441.143H441.154H441.165H441.176H441.188H441.199H441.21H441.221H441.232H441.243H441.255H441.266H441.277H441.288H441.299H441.31H441.322H441.333H441.344H441.355H441.366C443.59 507 445.731 507.232 447.576 507.432L447.577 507.432L447.675 507.443C449.627 507.654 451.266 507.827 452.891 507.827C455.652 507.827 457.891 510.065 457.891 512.827C457.891 515.588 455.652 517.827 452.891 517.827C450.682 517.827 448.55 517.596 446.71 517.397L446.598 517.384C444.648 517.173 443.003 517 441.366 517H441.355H441.344H441.333H441.322H441.31H441.299H441.288H441.277H441.266H441.255H441.243H441.232H441.221H441.21H441.199H441.188H441.176H441.165H441.154H441.143H441.132H441.12H441.109H441.098H441.087H441.076H441.065H441.053H441.042H441.031H441.02H441.009H440.998H440.986H440.975H440.964H440.953H440.942H440.931H440.919H440.908H440.897H440.886H440.875H440.864H440.852H440.841H440.83H440.819H440.808H440.797H440.785H440.774H440.763H440.752H440.741H440.729H440.718H440.707H440.696H440.685H440.674H440.662H440.651H440.64H440.629H440.618H440.607H440.595H440.584H440.573H440.562H440.551H440.54H440.528H440.517H440.506H440.495H440.484H440.473H440.461H440.45H440.439H440.428H440.417H440.406H440.394H440.383H440.372H440.361H440.35H440.339H440.327H440.316H440.305H440.294H440.283H440.271H440.26H440.249H440.238H440.227H440.216H440.204H440.193H440.182H440.171H440.16H440.149H440.137H440.126H440.115H440.104H440.093H440.082H440.07H440.059H440.048H440.037H440.026H440.015H440.003H439.992H439.981H439.97H439.959H439.948H439.936H439.925H439.914H439.903H439.892H439.88H439.869H439.858H439.847H439.836H439.825H439.813H439.802H439.791H439.78H439.769H439.758H439.746H439.735H439.724H439.713H439.702H439.691H439.679H439.668H439.657H439.646H439.635H439.624H439.612H439.601H439.59H439.579H439.568H439.557H439.545H439.534H439.523H439.512H439.501H439.489H439.478H439.467H439.456H439.445H439.434H439.422H439.411H439.4H439.389H439.378H439.367H439.355H439.344H439.333H439.322H439.311H439.3H439.288H439.277H439.266H439.255H439.244H439.233H439.221H439.21H439.199H439.188H439.177H439.166H439.154H439.143H439.132H439.121H439.11H439.098H439.087H439.076H439.065H439.054H439.043H439.031H439.02H439.009H438.998H438.987H438.976H438.964H438.953H438.942H438.931H438.92H438.909H438.897H438.886H438.875H438.864H438.853H438.842H438.83H438.819H438.808H438.797H438.786H438.775H438.763H438.752H438.741H438.73H438.719H438.707H438.696H438.685H438.674H438.663H438.652H438.64H438.629H438.618H438.607H438.596H438.585H438.573H438.562H438.551H438.54H438.529H438.518H438.506H438.495H438.484H438.473H438.462H438.451H438.439H438.428H438.417H438.406H438.395H438.384H438.372H438.361H438.35H438.339H438.328H438.316H438.305H438.294H438.283H438.272H438.261H438.249H438.238H438.227H438.216H438.205H438.194H438.182H438.171H438.16H438.149H438.138H438.127H438.115H438.104H438.093H438.082H438.071H438.06H438.048H438.037H438.026H438.015H438.004H437.993H437.981H437.97H437.959H437.948H437.937H437.926H437.914H437.903H437.892H437.881H437.87H437.858H437.847H437.836H437.825H437.814H437.803H437.791H437.78H437.769H437.758H437.747H437.736H437.724H437.713H437.702H437.691H437.68H437.669H437.657H437.646H437.635H437.624H437.613H437.602H437.59H437.579H437.568H437.557H437.546H437.535H437.523H437.512H437.501H437.49H437.479H437.468H437.456H437.445H437.434H437.423H437.412H437.4H437.389H437.378H437.367H437.356H437.345H437.333H437.322H437.311H437.3H437.289H437.278H437.266H437.255H437.244H437.233H437.222H437.211H437.199H437.188H437.177H437.166H437.155H437.144H437.132H437.121H437.11H437.104C436.545 517.821 435.725 518.73 434.483 519.45C433.734 519.884 433.456 520.403 433.37 520.784C433.284 521.163 433.314 521.714 433.773 522.372C434.455 523.351 434.914 523.974 435.295 524.419C435.655 524.84 435.824 524.955 435.86 524.979L435.861 524.979C435.868 524.984 435.922 525.024 436.156 525.072C436.461 525.134 436.992 525.192 437.952 525.192C451.7 525.192 459.267 538.067 457.815 550.569C457.408 554.076 454.986 556.168 452.992 557.276C451.011 558.377 448.706 558.965 446.73 559.314C442.83 560.002 438.678 560.001 436.979 560H436.842H436.821H436.799H436.778H436.757H436.736H436.715H436.694H436.672H436.651H436.63H436.609H436.588H436.566H436.545H436.524H436.503H436.482H436.461H436.439H436.418H436.397H436.376H436.355H436.334H436.312H436.291H436.27H436.249H436.228H436.206H436.185H436.164H436.143H436.122H436.101H436.079H436.058H436.037H436.016H435.995H435.974H435.952H435.931H435.91H435.889H435.868H435.846H435.825H435.804H435.783H435.762H435.741H435.719H435.698H435.677H435.656H435.635H435.614H435.592H435.571H435.55H435.529H435.508H435.487H435.465H435.444H435.423H435.402H435.381H435.359H435.338H435.317H435.296H435.275H435.254H435.232H435.211H435.19H435.169H435.148H435.127H435.105H435.084H435.063H435.042H435.021H434.999H434.978H434.957H434.936H434.915H434.894H434.872H434.851H434.83H434.809H434.788H434.767H434.745H434.724H434.703H434.682H434.661H434.639H434.618H434.597H434.576H434.555H434.534H434.512H434.491H434.47H434.449H434.428H434.407H434.385H434.364H434.343H434.322H434.301H434.28H434.258H434.237H434.216H434.195H434.174H434.152H434.131H434.11H434.089H434.068H434.047H434.025H434.004H433.983H433.962H433.941H433.92H433.898H433.877H433.856H433.835H433.814H433.793H433.771H433.75H433.729H433.708H433.687H433.665H433.644H433.623H433.602H433.581H433.56H433.538H433.517H433.496H433.475H433.454H433.433H433.411H433.39H433.369H433.348H433.327H433.305H433.284H433.263H433.242H433.221H433.2H433.178H433.157H433.136H433.115H433.094H433.073H433.051H433.03H433.009H432.988H432.967H432.945H432.924H432.903H432.882H432.861H432.84H432.818H432.797H432.776H432.755H432.734H432.713H432.691H432.67H432.649H432.628H432.607H432.586H432.564H432.543H432.522H432.501H432.48H432.458H432.437H432.416H432.395H432.374H432.353H432.331H432.31H432.289H432.268H432.247H432.226H432.204H432.183H432.162H432.141H432.12H432.098H432.077H432.056H432.035H432.014H431.993H431.971H431.95H431.929H431.908H431.887H431.866H431.844H431.823H431.802H431.781H431.76H431.738H431.717H431.696H431.675H431.654H431.633H431.611H431.59H431.569H431.548H431.527H431.506H431.484H431.463H431.442H431.421H431.4H431.379H431.357H431.336H431.315H431.294H431.273H431.251H431.23H431.209H431.188H431.167H431.146H431.124H431.103H431.082H431.061H431.04H431.019H430.997H430.976H430.955H430.934H430.913H430.891H430.87H430.849H430.828H430.807H430.786H430.764H430.743H430.722H430.701H430.68H430.659H430.637H430.616H430.595H430.574H430.553H430.531H430.51H430.489H430.468H430.447H430.426H430.404H430.383H430.362H430.341H430.32H430.299H430.277H430.256H430.235H430.214H430.193H430.172H430.15H430.129H430.108H430.087H430.066H430.044H430.023H430.002H429.981H429.96H429.939H429.917H429.896H429.875H429.854H429.833H429.812H429.79H429.769H429.748H429.727H429.706H429.685H429.663H429.642H429.621H429.6H429.579H429.557H429.536H429.515H429.494H429.473H429.452H429.43H429.409H429.388H429.367H429.346H429.325H429.303H429.282H429.261H429.24H429.219H429.197H429.176H429.155H429.134H429.113H429.092H429.07H429.049H429.028H429.007H428.986H428.965H428.943H428.922H428.901H428.88H428.859H428.837H428.816H428.795H428.774H428.753H428.732H428.71H428.689H428.668H428.647H428.626H428.605H428.583H428.562H428.541H428.52H428.499H428.478H428.456H428.435H428.414H428.393H428.372H428.35H428.329H428.308H428.287H428.266H428.245H428.223H428.202H428.181H428.16H428.139H428.118H428.096H428.075H428.054H428.033H428.012H427.99H427.969H427.948H427.927H427.906H427.885H427.863H427.842H427.821H427.8H427.798C429.652 561.034 432.089 562.282 435.008 563.746C435.322 563.903 435.64 564.063 435.963 564.224C436.447 564.466 436.94 564.712 437.441 564.963C440.776 566.628 444.45 568.462 448.014 570.348C452.459 572.7 456.983 575.26 460.751 577.87C464.211 580.268 468.208 583.478 470.232 587.417C472.125 591.101 470.673 595.623 466.989 597.516C463.305 599.409 458.784 597.957 456.89 594.273L456.892 594.276C456.892 594.276 456.887 594.268 456.878 594.252C456.867 594.235 456.85 594.208 456.825 594.173C456.785 594.116 456.727 594.036 456.643 593.932C456.444 593.687 456.149 593.366 455.733 592.973C454.888 592.176 453.718 591.246 452.208 590.199C449.179 588.101 445.277 585.869 441 583.607C437.612 581.814 434.146 580.083 430.829 578.427L430.817 578.421L429.996 578.011C429.71 577.868 429.426 577.726 429.143 577.584C428.855 577.44 428.569 577.297 428.284 577.154C424.37 575.191 420.557 573.244 417.908 571.581C414.203 569.253 410.516 566.978 406.856 564.719L406.829 564.703L406.799 564.684C390.589 554.681 374.892 544.994 360.324 532.499C344.024 518.518 343.729 498.328 351.657 481.589C359.509 465.012 375.82 450.398 395.608 444.797C406.961 441.584 421.401 444.125 433.34 448.327C439.486 450.49 445.373 453.232 450.377 456.271C455.265 459.24 459.802 462.787 462.749 466.749C463.451 467.693 464.009 468.701 464.455 469.726C467.678 466.468 471.516 463.766 475.621 461.571C483.999 457.091 494.113 454.361 504.379 453.179C524.502 450.864 547.788 454.272 561.786 465.343C570.604 472.317 575.315 483.427 575.56 492.778C575.824 502.883 572.831 509.913 567.965 516.038C565.698 518.892 563.063 521.504 560.487 523.997C560.037 524.433 559.586 524.866 559.135 525.301L559.133 525.303L559.127 525.309C556.917 527.439 554.686 529.588 552.348 532.07C545.901 538.913 539.965 546.274 533.97 553.901C532.901 555.26 531.829 556.63 530.752 558.007C525.84 564.285 520.813 570.708 515.532 576.875C514.975 577.525 514.175 578.689 512.982 580.549C512.724 580.951 512.45 581.382 512.163 581.833C511.247 583.274 510.199 584.921 509.13 586.49C507.717 588.564 506.055 590.823 504.199 592.777C502.423 594.647 499.95 596.8 496.798 597.916C492.893 599.297 488.608 597.252 487.226 593.347C485.845 589.442 487.89 585.156 491.795 583.775C491.776 583.781 491.776 583.781 491.797 583.769L491.798 583.769C491.894 583.712 492.407 583.411 493.323 582.447C494.361 581.354 495.495 579.862 496.733 578.044C497.657 576.689 498.521 575.331 499.409 573.936C499.721 573.445 500.035 572.951 500.357 572.45C501.48 570.699 502.806 568.673 504.139 567.117C509.184 561.227 513.962 555.122 518.865 548.857L518.925 548.78C520.002 547.404 521.084 546.021 522.177 544.631C528.209 536.957 534.493 529.147 541.43 521.784C544.043 519.011 546.576 516.571 548.793 514.435L548.804 514.425C549.233 514.012 549.651 513.609 550.055 513.219C552.63 510.726 554.626 508.715 556.22 506.708C559.077 503.111 560.73 499.471 560.565 493.171C560.427 487.896 557.529 481.1 552.482 477.108C542.908 469.537 524.322 465.984 506.094 468.081C497.184 469.106 489.002 471.425 482.694 474.799C476.349 478.192 472.513 482.296 470.974 486.652C470.342 488.444 470.218 489.825 470.077 491.4C470.002 492.25 469.921 493.155 469.752 494.212C469.707 494.499 469.587 495.226 469.294 496.029C469.152 496.419 468.824 497.239 468.163 498.11C467.501 498.982 465.999 500.546 463.45 501.005C460.818 501.479 458.782 500.474 457.742 499.747C456.756 499.057 456.158 498.292 455.892 497.929C455.341 497.175 455.003 496.437 454.857 496.11C454.268 494.789 453.538 492.493 452.649 489.664C452.047 487.747 451.81 485.767 451.673 484.208C451.601 483.385 451.529 482.243 451.467 481.25L451.467 481.246C451.447 480.931 451.428 480.631 451.41 480.361C451.394 480.105 451.378 479.876 451.364 479.686C451.26 478.297 451.132 477.278 450.95 476.499C450.819 475.937 450.704 475.703 450.684 475.663C449.375 473.921 446.695 471.584 442.591 469.092C438.573 466.651 433.643 464.335 428.361 462.476ZM437.895 515.641C437.903 515.626 437.901 515.631 437.889 515.652L437.895 515.641Z" fill="black"/>
<path d="M468 552V551" stroke="black" stroke-width="10" stroke-linecap="round"/>
<path d="M484.071 556.946C484.071 547.502 483.348 538.05 486.515 529.002C487.953 524.894 487.294 521.93 489.515 517.891C490.354 516.366 490.406 513.722 491.626 512.502C492.632 511.496 494.328 511.946 495.515 510.946C505.084 502.888 505.836 548.946 511.071 548.946" stroke="black" stroke-width="10" stroke-linecap="round"/>
<path d="M490.071 535.313C490.455 532.237 501.034 535.313 503.071 535.313" stroke="black" stroke-width="10" stroke-linecap="round"/>
<path d="M289 429C288.668 431.659 285.527 426.11 285.278 425.778C278.491 416.728 272.322 407.925 266.556 398.167C263.304 392.664 258.444 386.735 258.444 380C258.444 372.939 262.131 365.445 267 360.444C272.167 355.138 283.017 356.099 284.889 364.056C285.867 368.211 286 372.534 286 376.778C286 377.125 286.004 382.615 286.222 382.556C289.883 381.557 294.12 371.009 295.944 368.111C298.365 364.267 300.174 359.697 304.556 357.944C306.543 357.15 308.009 355.915 310.222 356C315.531 356.204 312.716 368.781 312.111 371.667C310.091 381.304 306.595 391.925 302.444 400.889C299.924 406.333 295.707 411.663 294.056 417.444C292.791 421.871 293.536 428 288 428" stroke="black" stroke-width="10" stroke-linecap="round"/>
<path d="M598 413C599.501 412.812 596.951 389.332 597.056 386.556C597.4 377.424 604.641 367.058 615 368C619.213 368.383 616.717 387.889 616.5 387.889C615.307 387.889 623.03 375.192 624.167 374.056C627.599 370.623 632.935 366.618 638 366.056C645.074 365.27 648.626 376.789 646.333 382.222C643.747 388.353 636.483 392.83 631.611 396.944C627.503 400.414 623.929 404.434 619.5 407.5C615.918 409.98 613.132 412.08 610.222 415.222C605.141 420.71 604.811 422 597 422" stroke="black" stroke-width="10" stroke-linecap="round"/>
<path d="M832 409C838.741 409 844.461 406.693 850 403" stroke="black" stroke-width="10" stroke-linecap="round"/>
<path d="M28 408C32.4746 408.447 41.0322 414.064 43 418" stroke="black" stroke-width="10" stroke-linecap="round"/>
<path d="M248 275V274" stroke="black" stroke-width="10" stroke-linecap="round"/>
<path d="M273 258V257" stroke="black" stroke-width="10" stroke-linecap="round"/>
<path d="M584 267C584.115 266.079 584.325 266.338 585 266" stroke="black" stroke-width="10" stroke-linecap="round"/>
<path d="M603 293H604" stroke="black" stroke-width="10" stroke-linecap="round"/>
</svg>
